<?xml version="1.0" standalone="no"?><svg xmlns="http://www.w3.org/2000/svg" viewBox="0 0 1440 320"><path fill="#428cff" fill-opacity="0.77" d="M0,64L40,64C80,64,160,64,240,58.7C320,53,400,43,480,69.3C560,96,640,160,720,202.7C800,245,880,267,960,256C1040,245,1120,203,1200,202.7C1280,203,1360,245,1400,266.7L1440,288L1440,320L1400,320C1360,320,1280,320,1200,320C1120,320,1040,320,960,320C880,320,800,320,720,320C640,320,560,320,480,320C400,320,320,320,240,320C160,320,80,320,40,320L0,320Z"></path></svg>